<mxfile host="65bd71144e">
    <diagram id="6aXtRZQlH9K5_He0-vWl" name="Page-1">
        <mxGraphModel dx="1781" dy="1001" grid="1" gridSize="10" guides="1" tooltips="1" connect="1" arrows="1" fold="1" page="1" pageScale="1" pageWidth="1920" pageHeight="1200" background="none" math="0" shadow="0" adaptiveColors="none">
            <root>
                <mxCell id="0"/>
                <mxCell id="1" parent="0"/>
                <mxCell id="193" style="edgeStyle=elbowEdgeStyle;rounded=1;html=1;fontSize=11;fontColor=default;" parent="1" source="3" target="57" edge="1">
                    <mxGeometry relative="1" as="geometry"/>
                </mxCell>
                <mxCell id="3" value="profile.js" style="rounded=1;whiteSpace=wrap;html=1;fontSize=14;spacing=0;align=center;fillColor=#fff2cc;strokeColor=#d6b656;fillStyle=auto;" parent="1" vertex="1">
                    <mxGeometry x="400" y="310" width="120" height="60" as="geometry"/>
                </mxCell>
                <mxCell id="194" style="edgeStyle=elbowEdgeStyle;rounded=1;html=1;fontSize=11;fontColor=default;exitX=1;exitY=0.5;exitDx=0;exitDy=0;" parent="1" source="8" target="60" edge="1">
                    <mxGeometry relative="1" as="geometry">
                        <mxPoint x="800" y="420" as="sourcePoint"/>
                    </mxGeometry>
                </mxCell>
                <mxCell id="8" value="setting.js" style="rounded=1;whiteSpace=wrap;html=1;fontSize=14;spacing=0;align=center;fillColor=#fff2cc;strokeColor=#d6b656;fillStyle=auto;" parent="1" vertex="1">
                    <mxGeometry x="400" y="390" width="120" height="60" as="geometry"/>
                </mxCell>
                <mxCell id="195" style="edgeStyle=elbowEdgeStyle;rounded=1;html=1;fontSize=11;fontColor=default;" parent="1" source="12" target="64" edge="1">
                    <mxGeometry relative="1" as="geometry"/>
                </mxCell>
                <mxCell id="200" style="edgeStyle=orthogonalEdgeStyle;rounded=1;html=1;entryX=0;entryY=0.5;entryDx=0;entryDy=0;fontSize=11;fontColor=default;dashed=1;" parent="1" source="12" target="134" edge="1">
                    <mxGeometry relative="1" as="geometry"/>
                </mxCell>
                <mxCell id="12" value="compass.js" style="rounded=1;whiteSpace=wrap;html=1;fontSize=14;spacing=0;align=center;fillColor=#fff2cc;strokeColor=#d6b656;fillStyle=auto;" parent="1" vertex="1">
                    <mxGeometry x="400" y="470" width="120" height="60" as="geometry"/>
                </mxCell>
                <mxCell id="28" value="" style="edgeStyle=elbowEdgeStyle;elbow=horizontal;endArrow=classic;html=1;curved=0;rounded=1;endSize=8;startSize=8;fontSize=14;" parent="1" source="73" target="126" edge="1">
                    <mxGeometry width="50" height="50" relative="1" as="geometry">
                        <mxPoint x="430" y="370" as="sourcePoint"/>
                        <mxPoint x="430" y="320" as="targetPoint"/>
                    </mxGeometry>
                </mxCell>
                <mxCell id="60" value="/setting" style="rounded=1;whiteSpace=wrap;html=1;fontSize=14;glass=0;arcSize=50;align=center;spacingLeft=0;spacing=0;labelBorderColor=none;labelBackgroundColor=none;fillColor=#d5e8d4;strokeColor=#82b366;" parent="1" vertex="1">
                    <mxGeometry x="880" y="400" width="160" height="40" as="geometry"/>
                </mxCell>
                <mxCell id="62" value="/mission/history/:id" style="rounded=1;whiteSpace=wrap;html=1;fontSize=14;arcSize=50;align=center;spacingLeft=0;spacing=0;labelBorderColor=none;labelBackgroundColor=none;fillColor=#d5e8d4;strokeColor=#82b366;" parent="1" vertex="1">
                    <mxGeometry x="880" y="660" width="160" height="40" as="geometry"/>
                </mxCell>
                <mxCell id="73" value="firebase" style="shape=datastore;whiteSpace=wrap;html=1;fontSize=14;fillColor=#f8cecc;strokeColor=#b85450;rounded=1;" parent="1" vertex="1">
                    <mxGeometry x="80" y="160" width="120" height="60" as="geometry"/>
                </mxCell>
                <mxCell id="76" style="edgeStyle=elbowEdgeStyle;html=1;fontSize=14;rounded=1;" parent="1" source="74" target="127" edge="1">
                    <mxGeometry relative="1" as="geometry"/>
                </mxCell>
                <mxCell id="74" value="indexedDB" style="shape=datastore;whiteSpace=wrap;html=1;fontSize=14;fillColor=#f8cecc;strokeColor=#b85450;rounded=1;" parent="1" vertex="1">
                    <mxGeometry x="80" y="710" width="120" height="60" as="geometry"/>
                </mxCell>
                <mxCell id="57" value="/profile" style="rounded=1;whiteSpace=wrap;html=1;fontSize=14;glass=0;arcSize=50;align=center;spacingLeft=0;spacing=0;labelBorderColor=none;labelBackgroundColor=none;fillColor=#d5e8d4;strokeColor=#82b366;" parent="1" vertex="1">
                    <mxGeometry x="880" y="320" width="160" height="40" as="geometry"/>
                </mxCell>
                <mxCell id="37" value="/mission" style="rounded=1;whiteSpace=wrap;html=1;fontSize=14;arcSize=50;align=center;spacingLeft=0;spacing=0;labelBorderColor=none;labelBackgroundColor=none;fillColor=#d5e8d4;strokeColor=#82b366;" parent="1" vertex="1">
                    <mxGeometry x="880" y="560" width="160" height="40" as="geometry"/>
                </mxCell>
                <mxCell id="44" value="/mission/edit" style="rounded=1;whiteSpace=wrap;html=1;fontSize=14;arcSize=50;align=center;spacingLeft=0;spacing=0;labelBorderColor=none;labelBackgroundColor=none;fillColor=#d5e8d4;strokeColor=#82b366;" parent="1" vertex="1">
                    <mxGeometry x="880" y="610" width="160" height="40" as="geometry"/>
                </mxCell>
                <mxCell id="64" value="/compass" style="rounded=1;whiteSpace=wrap;html=1;fontSize=14;glass=0;arcSize=50;align=center;spacingLeft=0;spacing=0;labelBorderColor=none;labelBackgroundColor=none;fillColor=#d5e8d4;strokeColor=#82b366;" parent="1" vertex="1">
                    <mxGeometry x="880" y="480" width="160" height="40" as="geometry"/>
                </mxCell>
                <mxCell id="121" value="Vue SFC" style="text;strokeColor=none;fillColor=#d5e8d4;html=1;verticalAlign=middle;align=center;rounded=1;" parent="1" vertex="1">
                    <mxGeometry x="880" y="60" width="160" height="60" as="geometry"/>
                </mxCell>
                <mxCell id="122" value="Store" style="text;strokeColor=none;fillColor=#dae8fc;html=1;verticalAlign=middle;align=center;rounded=1;" parent="1" vertex="1">
                    <mxGeometry x="560" y="60" width="280" height="60" as="geometry"/>
                </mxCell>
                <mxCell id="124" value="DataBase" style="text;strokeColor=none;fillColor=#f8cecc;html=1;verticalAlign=middle;align=center;rounded=1;" parent="1" vertex="1">
                    <mxGeometry x="80" y="60" width="120" height="60" as="geometry"/>
                </mxCell>
                <mxCell id="126" value="firebase.js" style="rounded=1;whiteSpace=wrap;html=1;fontSize=14;fillColor=#fff2cc;strokeColor=#d6b656;" parent="1" vertex="1">
                    <mxGeometry x="80" y="310" width="120" height="60" as="geometry"/>
                </mxCell>
                <mxCell id="131" style="edgeStyle=elbowEdgeStyle;html=1;rounded=1;" parent="1" source="127" target="185" edge="1">
                    <mxGeometry relative="1" as="geometry">
                        <mxPoint x="280" y="485" as="targetPoint"/>
                    </mxGeometry>
                </mxCell>
                <mxCell id="127" value="indexedDB.js" style="rounded=1;whiteSpace=wrap;html=1;fontSize=14;fillColor=#fff2cc;strokeColor=#d6b656;" parent="1" vertex="1">
                    <mxGeometry x="80" y="550" width="120" height="60" as="geometry"/>
                </mxCell>
                <mxCell id="130" value="" style="edgeStyle=elbowEdgeStyle;elbow=horizontal;endArrow=classic;html=1;curved=0;rounded=1;endSize=8;startSize=8;fontSize=14;" parent="1" source="126" target="185" edge="1">
                    <mxGeometry width="50" height="50" relative="1" as="geometry">
                        <mxPoint x="150" y="240" as="sourcePoint"/>
                        <mxPoint x="280" y="485" as="targetPoint"/>
                    </mxGeometry>
                </mxCell>
                <mxCell id="196" style="edgeStyle=elbowEdgeStyle;rounded=1;html=1;fontSize=11;fontColor=default;" parent="1" source="133" target="37" edge="1">
                    <mxGeometry relative="1" as="geometry"/>
                </mxCell>
                <mxCell id="197" style="edgeStyle=elbowEdgeStyle;rounded=1;html=1;fontSize=11;fontColor=default;" parent="1" source="133" target="44" edge="1">
                    <mxGeometry relative="1" as="geometry"/>
                </mxCell>
                <mxCell id="201" style="edgeStyle=orthogonalEdgeStyle;html=1;entryX=0;entryY=0.5;entryDx=0;entryDy=0;fontSize=11;fontColor=default;rounded=1;dashed=1;strokeWidth=1;jumpSize=6;shadow=0;" parent="1" source="133" target="134" edge="1">
                    <mxGeometry relative="1" as="geometry"/>
                </mxCell>
                <mxCell id="229" style="edgeStyle=orthogonalEdgeStyle;rounded=1;jumpSize=6;html=1;entryX=0;entryY=0.5;entryDx=0;entryDy=0;shadow=0;strokeWidth=1;fontSize=24;fontColor=default;startArrow=none;startFill=0;" parent="1" source="133" target="62" edge="1">
                    <mxGeometry relative="1" as="geometry"/>
                </mxCell>
                <mxCell id="133" value="mission.js" style="rounded=1;whiteSpace=wrap;html=1;fontSize=14;spacing=0;align=center;fillColor=#fff2cc;strokeColor=#d6b656;fillStyle=auto;" parent="1" vertex="1">
                    <mxGeometry x="400" y="550" width="120" height="60" as="geometry"/>
                </mxCell>
                <mxCell id="199" style="edgeStyle=orthogonalEdgeStyle;rounded=1;html=1;fontSize=11;fontColor=default;" parent="1" source="134" target="141" edge="1">
                    <mxGeometry relative="1" as="geometry"/>
                </mxCell>
                <mxCell id="134" value="menu" style="rounded=1;whiteSpace=wrap;html=1;fontSize=14;spacing=0;align=center;arcSize=0;fillColor=#dae8fc;strokeColor=#6c8ebf;" parent="1" vertex="1">
                    <mxGeometry x="600" y="720" width="160" height="40" as="geometry"/>
                </mxCell>
                <mxCell id="141" value="/Router" style="rounded=1;whiteSpace=wrap;html=1;fontSize=14;glass=0;arcSize=50;align=center;spacingLeft=0;spacing=0;labelBorderColor=none;labelBackgroundColor=none;fillColor=#d5e8d4;strokeColor=#82b366;" parent="1" vertex="1">
                    <mxGeometry x="880" y="720" width="160" height="40" as="geometry"/>
                </mxCell>
                <mxCell id="186" style="edgeStyle=elbowEdgeStyle;rounded=1;html=1;fontColor=default;" parent="1" source="185" target="3" edge="1">
                    <mxGeometry relative="1" as="geometry"/>
                </mxCell>
                <mxCell id="187" style="edgeStyle=elbowEdgeStyle;rounded=1;html=1;fontColor=default;" parent="1" source="185" target="8" edge="1">
                    <mxGeometry relative="1" as="geometry"/>
                </mxCell>
                <mxCell id="188" style="edgeStyle=elbowEdgeStyle;rounded=1;html=1;fontColor=default;" parent="1" source="185" target="133" edge="1">
                    <mxGeometry relative="1" as="geometry"/>
                </mxCell>
                <mxCell id="189" style="edgeStyle=elbowEdgeStyle;rounded=1;html=1;fontColor=default;" parent="1" source="185" target="12" edge="1">
                    <mxGeometry relative="1" as="geometry"/>
                </mxCell>
                <mxCell id="185" value="data.js" style="rounded=1;whiteSpace=wrap;html=1;fontSize=14;spacing=0;align=center;fillColor=#fff2cc;strokeColor=#d6b656;fillStyle=auto;" parent="1" vertex="1">
                    <mxGeometry x="240" y="380" width="120" height="160" as="geometry"/>
                </mxCell>
                <mxCell id="262" style="edgeStyle=orthogonalEdgeStyle;html=1;entryX=0;entryY=0.5;entryDx=0;entryDy=0;rounded=1;" parent="1" source="202" target="134" edge="1">
                    <mxGeometry relative="1" as="geometry"/>
                </mxCell>
                <mxCell id="202" value="router.js" style="rounded=1;whiteSpace=wrap;html=1;fontSize=14;spacing=0;align=center;fillColor=#ffe6cc;strokeColor=#d79b00;fillStyle=auto;" parent="1" vertex="1">
                    <mxGeometry x="400" y="710" width="120" height="60" as="geometry"/>
                </mxCell>
                <mxCell id="212" style="edgeStyle=orthogonalEdgeStyle;rounded=1;jumpSize=6;html=1;shadow=0;dashed=1;strokeWidth=1;fontSize=24;fontColor=default;startArrow=none;startFill=0;" parent="1" source="211" target="127" edge="1">
                    <mxGeometry relative="1" as="geometry"/>
                </mxCell>
                <mxCell id="213" style="edgeStyle=orthogonalEdgeStyle;rounded=1;jumpSize=6;html=1;shadow=0;dashed=1;strokeWidth=1;fontSize=24;fontColor=default;startArrow=none;startFill=0;" parent="1" source="211" target="126" edge="1">
                    <mxGeometry relative="1" as="geometry"/>
                </mxCell>
                <mxCell id="211" value="isLogIn" style="text;html=1;strokeColor=none;fillColor=none;align=center;verticalAlign=middle;whiteSpace=wrap;rounded=1;glass=0;fillStyle=hatch;strokeWidth=1;fontSize=24;fontColor=default;fontStyle=0;horizontal=1;" parent="1" vertex="1">
                    <mxGeometry x="80" y="445" width="120" height="30" as="geometry"/>
                </mxCell>
                <mxCell id="215" value="/home" style="rounded=1;whiteSpace=wrap;html=1;fontSize=14;glass=0;arcSize=50;align=center;spacingLeft=0;spacing=0;labelBorderColor=none;labelBackgroundColor=none;fillColor=#d5e8d4;strokeColor=#82b366;" parent="1" vertex="1">
                    <mxGeometry x="880" y="240" width="160" height="40" as="geometry"/>
                </mxCell>
                <mxCell id="230" value="user&lt;span style=&quot;background-color: transparent;&quot;&gt;.js&lt;/span&gt;" style="rounded=1;whiteSpace=wrap;html=1;fontSize=14;spacing=0;align=center;fillColor=#fff2cc;strokeColor=#d6b656;" parent="1" vertex="1">
                    <mxGeometry x="400" y="230" width="120" height="60" as="geometry"/>
                </mxCell>
                <mxCell id="232" style="edgeStyle=elbowEdgeStyle;rounded=1;html=1;fontColor=default;entryX=0;entryY=0.5;entryDx=0;entryDy=0;exitX=1;exitY=0.5;exitDx=0;exitDy=0;" parent="1" source="185" target="230" edge="1">
                    <mxGeometry relative="1" as="geometry">
                        <mxPoint x="370" y="470" as="sourcePoint"/>
                        <mxPoint x="410" y="350" as="targetPoint"/>
                    </mxGeometry>
                </mxCell>
                <mxCell id="235" style="edgeStyle=orthogonalEdgeStyle;rounded=1;jumpSize=6;html=1;shadow=0;strokeWidth=1;fontSize=24;fontColor=default;startArrow=none;startFill=0;entryX=0;entryY=0.5;entryDx=0;entryDy=0;" parent="1" source="230" target="240" edge="1">
                    <mxGeometry relative="1" as="geometry">
                        <mxPoint x="520" y="210" as="sourcePoint"/>
                        <mxPoint x="620" y="200" as="targetPoint"/>
                    </mxGeometry>
                </mxCell>
                <mxCell id="254" value="" style="group;rounded=1;" parent="1" vertex="1" connectable="0">
                    <mxGeometry x="560" y="200" width="210" height="360" as="geometry"/>
                </mxCell>
                <mxCell id="220" value="compass" style="rounded=1;whiteSpace=wrap;html=1;fontSize=14;spacing=0;align=center;arcSize=0;strokeColor=#6c8ebf;shadow=1;fillColor=#dae8fc;" parent="254" vertex="1">
                    <mxGeometry x="90" y="240" width="120" height="40" as="geometry"/>
                </mxCell>
                <mxCell id="244" style="edgeStyle=orthogonalEdgeStyle;html=1;entryX=0;entryY=0.5;entryDx=0;entryDy=0;rounded=1;curved=0;exitX=0.25;exitY=1;exitDx=0;exitDy=0;strokeColor=#6c8ebf;shadow=1;fillColor=#dae8fc;" parent="254" source="240" target="220" edge="1">
                    <mxGeometry relative="1" as="geometry"/>
                </mxCell>
                <mxCell id="219" value="mission" style="rounded=1;whiteSpace=wrap;html=1;fontSize=14;spacing=0;align=center;arcSize=0;strokeColor=#6c8ebf;shadow=1;fillColor=#dae8fc;" parent="254" vertex="1">
                    <mxGeometry x="90" y="320" width="120" height="40" as="geometry"/>
                </mxCell>
                <mxCell id="245" style="edgeStyle=orthogonalEdgeStyle;html=1;entryX=0;entryY=0.5;entryDx=0;entryDy=0;exitX=0.25;exitY=1;exitDx=0;exitDy=0;strokeColor=#6c8ebf;shadow=1;fillColor=#dae8fc;rounded=1;" parent="254" source="240" target="219" edge="1">
                    <mxGeometry relative="1" as="geometry"/>
                </mxCell>
                <mxCell id="247" value="profile" style="rounded=1;whiteSpace=wrap;html=1;fontSize=14;spacing=0;align=center;arcSize=0;strokeColor=#6c8ebf;shadow=1;fillColor=#dae8fc;" parent="254" vertex="1">
                    <mxGeometry x="90" y="80" width="120" height="40" as="geometry"/>
                </mxCell>
                <mxCell id="248" style="edgeStyle=orthogonalEdgeStyle;html=1;entryX=0;entryY=0.5;entryDx=0;entryDy=0;exitX=0.25;exitY=1;exitDx=0;exitDy=0;strokeColor=#6c8ebf;shadow=1;fillColor=#dae8fc;rounded=1;" parent="254" source="240" target="247" edge="1">
                    <mxGeometry relative="1" as="geometry"/>
                </mxCell>
                <mxCell id="249" value="setting" style="rounded=1;whiteSpace=wrap;html=1;fontSize=14;spacing=0;align=center;arcSize=0;strokeColor=#6c8ebf;shadow=1;fillColor=#dae8fc;" parent="254" vertex="1">
                    <mxGeometry x="90" y="160" width="120" height="40" as="geometry"/>
                </mxCell>
                <mxCell id="250" style="edgeStyle=orthogonalEdgeStyle;html=1;entryX=0;entryY=0.5;entryDx=0;entryDy=0;exitX=0.25;exitY=1;exitDx=0;exitDy=0;strokeColor=#6c8ebf;shadow=1;fillColor=#dae8fc;rounded=1;" parent="254" source="240" target="249" edge="1">
                    <mxGeometry relative="1" as="geometry"/>
                </mxCell>
                <mxCell id="240" value="user" style="rounded=1;whiteSpace=wrap;html=1;fontSize=14;spacing=0;align=center;arcSize=0;strokeColor=#6c8ebf;shadow=1;glass=0;fillColor=#dae8fc;" parent="254" vertex="1">
                    <mxGeometry width="160" height="40" as="geometry"/>
                </mxCell>
                <mxCell id="255" style="edgeStyle=orthogonalEdgeStyle;html=1;entryX=0;entryY=0.5;entryDx=0;entryDy=0;dashed=1;rounded=1;curved=0;jumpStyle=none;" parent="1" source="247" target="57" edge="1">
                    <mxGeometry relative="1" as="geometry">
                        <Array as="points">
                            <mxPoint x="840" y="300"/>
                            <mxPoint x="840" y="340"/>
                        </Array>
                    </mxGeometry>
                </mxCell>
                <mxCell id="256" style="edgeStyle=orthogonalEdgeStyle;html=1;entryX=0;entryY=0.5;entryDx=0;entryDy=0;dashed=1;rounded=1;" parent="1" source="249" target="60" edge="1">
                    <mxGeometry relative="1" as="geometry">
                        <Array as="points">
                            <mxPoint x="840" y="380"/>
                            <mxPoint x="840" y="420"/>
                        </Array>
                    </mxGeometry>
                </mxCell>
                <mxCell id="257" style="edgeStyle=orthogonalEdgeStyle;html=1;entryX=0;entryY=0.5;entryDx=0;entryDy=0;dashed=1;rounded=1;" parent="1" source="220" target="64" edge="1">
                    <mxGeometry relative="1" as="geometry">
                        <Array as="points">
                            <mxPoint x="840" y="460"/>
                            <mxPoint x="840" y="500"/>
                        </Array>
                    </mxGeometry>
                </mxCell>
                <mxCell id="258" style="edgeStyle=orthogonalEdgeStyle;html=1;entryX=0;entryY=0.5;entryDx=0;entryDy=0;dashed=1;rounded=1;" parent="1" source="219" target="37" edge="1">
                    <mxGeometry relative="1" as="geometry">
                        <Array as="points">
                            <mxPoint x="840" y="540"/>
                            <mxPoint x="840" y="580"/>
                        </Array>
                    </mxGeometry>
                </mxCell>
                <mxCell id="259" style="edgeStyle=orthogonalEdgeStyle;html=1;entryX=0;entryY=0.5;entryDx=0;entryDy=0;dashed=1;rounded=1;fillColor=#dae8fc;strokeColor=#6c8ebf;shadow=1;" parent="1" source="219" target="215" edge="1">
                    <mxGeometry relative="1" as="geometry">
                        <Array as="points">
                            <mxPoint x="800" y="540"/>
                            <mxPoint x="800" y="260"/>
                        </Array>
                    </mxGeometry>
                </mxCell>
                <mxCell id="260" style="edgeStyle=orthogonalEdgeStyle;html=1;entryX=0;entryY=0.5;entryDx=0;entryDy=0;dashed=1;rounded=1;fillColor=#dae8fc;strokeColor=#6c8ebf;shadow=1;" parent="1" source="220" target="215" edge="1">
                    <mxGeometry relative="1" as="geometry">
                        <Array as="points">
                            <mxPoint x="800" y="460"/>
                            <mxPoint x="800" y="260"/>
                        </Array>
                    </mxGeometry>
                </mxCell>
                <mxCell id="263" value="pinia" style="text;strokeColor=none;fillColor=#fff2cc;html=1;verticalAlign=middle;align=center;rounded=1;fillStyle=auto;gradientColor=none;gradientDirection=north;" parent="1" vertex="1">
                    <mxGeometry x="240" y="60" width="280" height="60" as="geometry"/>
                </mxCell>
                <mxCell id="264" value="Vue Router" style="text;strokeColor=none;fillColor=#ffe6cc;html=1;verticalAlign=middle;align=center;rounded=1;fillStyle=auto;gradientDirection=north;" parent="1" vertex="1">
                    <mxGeometry x="400" y="800" width="280" height="60" as="geometry"/>
                </mxCell>
            </root>
        </mxGraphModel>
    </diagram>
</mxfile>